{
	"asset":{
		"generator":"Khronos glTF Blender I/O v4.2.69",
		"version":"2.0"
	},
	"extensionsUsed":[
		"KHR_materials_transmission",
		"KHR_materials_specular",
		"KHR_materials_ior",
		"EXT_texture_webp",
		"KHR_materials_sheen"
	],
	"scene":0,
	"scenes":[
		{
			"name":"posicao 02",
			"nodes":[
				2
			]
		}
	],
	"nodes":[
		{
			"mesh":0,
			"name":"queijo amarelo.002"
		},
		{
			"mesh":1,
			"name":"rotulo.001",
			"scale":[
				1.0002182722091675,
				1.0054786205291748,
				1
			]
		},
		{
			"children":[
				0,
				1
			],
			"mesh":2,
			"name":"plastico novo.002",
			"rotation":[
				0.3483249545097351,
				-0.6153615117073059,
				0.6153614521026611,
				0.3483249247074127
			],
			"scale":[
				2.846222400665283,
				1.0368173122406006,
				1.3243681192398071
			],
			"translation":[
				0,
				1.2998671531677246,
				0.23883476853370667
			]
		}
	],
	"animations":[
		{
			"channels":[
				{
					"sampler":0,
					"target":{
						"node":2,
						"path":"translation"
					}
				},
				{
					"sampler":1,
					"target":{
						"node":2,
						"path":"rotation"
					}
				}
			],
			"name":"plastico novo.002Action",
			"samplers":[
				{
					"input":11,
					"interpolation":"LINEAR",
					"output":12
				},
				{
					"input":11,
					"interpolation":"LINEAR",
					"output":13
				}
			]
		}
	],
	"materials":[
		{
			"name":"material queijo",
			"pbrMetallicRoughness":{
				"baseColorFactor":[
					1,
					0.924669623374939,
					0.4355374276638031,
					1
				],
				"metallicFactor":0,
				"roughnessFactor":0.5
			}
		},
		{
			"alphaMode":"BLEND",
			"doubleSided":true,
			"name":"Material.005",
			"pbrMetallicRoughness":{
				"baseColorTexture":{
					"index":0
				},
				"metallicFactor":0,
				"roughnessFactor":0
			}
		},
		{
			"alphaMode":"BLEND",
			"doubleSided":true,
			"extensions":{
				"KHR_materials_transmission":{
					"transmissionFactor":1
				},
				"KHR_materials_specular":{
					"specularFactor":0.6181818246841431
				},
				"KHR_materials_sheen":{
					"sheenColorFactor":[
						1.0,
						1.0,
						1.0
					],
					"sheenRoughnessFactor":0.5
				},
				"KHR_materials_ior":{
					"ior":1.7499994039535522
				}
			},
			"name":"plastic glass.002",
			"pbrMetallicRoughness":{
				"baseColorFactor":[
					1,
					0.9798058271408081,
					0.5525932908058167,
					0.5
				],
				"metallicFactor":0.1409090906381607
			}
		}
	],
	"meshes":[
		{
			"name":"Cube.013",
			"primitives":[
				{
					"attributes":{
						"POSITION":0,
						"NORMAL":1,
						"TEXCOORD_0":2
					},
					"indices":3,
					"material":0
				}
			]
		},
		{
			"name":"Cube.012",
			"primitives":[
				{
					"attributes":{
						"POSITION":4,
						"NORMAL":5,
						"TEXCOORD_0":6
					},
					"indices":7,
					"material":1
				}
			]
		},
		{
			"name":"Cube.014",
			"primitives":[
				{
					"attributes":{
						"POSITION":8,
						"NORMAL":9,
						"TEXCOORD_0":10
					},
					"indices":3,
					"material":2
				}
			]
		}
	],
	"textures":[
		{
			"extensions":{
				"EXT_texture_webp":{
					"source":0
				}
			},
			"sampler":0,
			"source":1
		}
	],
	"images":[
		{
			"mimeType":"image/webp",
			"name":"rotulo-queijo",
			"uri":"rotulo-queijo.webp"
		},
		{
			"mimeType":"image/png",
			"name":"rotulo-queijo",
			"uri":"rotulo-queijo.png"
		}
	],
	"accessors":[
		{
			"bufferView":0,
			"componentType":5126,
			"count":1733,
			"max":[
				0.9770291447639465,
				0.9762612581253052,
				0.9762612581253052
			],
			"min":[
				-0.9770291447639465,
				-0.9762612581253052,
				-0.9762612581253052
			],
			"type":"VEC3"
		},
		{
			"bufferView":1,
			"componentType":5126,
			"count":1733,
			"type":"VEC3"
		},
		{
			"bufferView":2,
			"componentType":5126,
			"count":1733,
			"type":"VEC2"
		},
		{
			"bufferView":3,
			"componentType":5123,
			"count":6324,
			"type":"SCALAR"
		},
		{
			"bufferView":4,
			"componentType":5126,
			"count":1775,
			"max":[
				0.9772398471832275,
				0.9762612581253052,
				0.9763903021812439
			],
			"min":[
				-0.9772398471832275,
				-0.9762612581253052,
				-0.9763904213905334
			],
			"type":"VEC3"
		},
		{
			"bufferView":5,
			"componentType":5126,
			"count":1775,
			"type":"VEC3"
		},
		{
			"bufferView":6,
			"componentType":5126,
			"count":1775,
			"type":"VEC2"
		},
		{
			"bufferView":7,
			"componentType":5123,
			"count":6324,
			"type":"SCALAR"
		},
		{
			"bufferView":8,
			"componentType":5126,
			"count":1733,
			"max":[
				0.9780291318893433,
				0.9772612452507019,
				0.9772614240646362
			],
			"min":[
				-0.9780291318893433,
				-0.9772612452507019,
				-0.9772613048553467
			],
			"type":"VEC3"
		},
		{
			"bufferView":9,
			"componentType":5126,
			"count":1733,
			"type":"VEC3"
		},
		{
			"bufferView":10,
			"componentType":5126,
			"count":1733,
			"type":"VEC2"
		},
		{
			"bufferView":11,
			"componentType":5126,
			"count":3,
			"max":[
				0.125
			],
			"min":[
				0.041666666666666664
			],
			"type":"SCALAR"
		},
		{
			"bufferView":12,
			"componentType":5126,
			"count":3,
			"type":"VEC3"
		},
		{
			"bufferView":13,
			"componentType":5126,
			"count":3,
			"type":"VEC4"
		}
	],
	"bufferViews":[
		{
			"buffer":0,
			"byteLength":20796,
			"byteOffset":0,
			"target":34962
		},
		{
			"buffer":0,
			"byteLength":20796,
			"byteOffset":20796,
			"target":34962
		},
		{
			"buffer":0,
			"byteLength":13864,
			"byteOffset":41592,
			"target":34962
		},
		{
			"buffer":0,
			"byteLength":12648,
			"byteOffset":55456,
			"target":34963
		},
		{
			"buffer":0,
			"byteLength":21300,
			"byteOffset":68104,
			"target":34962
		},
		{
			"buffer":0,
			"byteLength":21300,
			"byteOffset":89404,
			"target":34962
		},
		{
			"buffer":0,
			"byteLength":14200,
			"byteOffset":110704,
			"target":34962
		},
		{
			"buffer":0,
			"byteLength":12648,
			"byteOffset":124904,
			"target":34963
		},
		{
			"buffer":0,
			"byteLength":20796,
			"byteOffset":137552,
			"target":34962
		},
		{
			"buffer":0,
			"byteLength":20796,
			"byteOffset":158348,
			"target":34962
		},
		{
			"buffer":0,
			"byteLength":13864,
			"byteOffset":179144,
			"target":34962
		},
		{
			"buffer":0,
			"byteLength":12,
			"byteOffset":193008
		},
		{
			"buffer":0,
			"byteLength":36,
			"byteOffset":193020
		},
		{
			"buffer":0,
			"byteLength":48,
			"byteOffset":193056
		}
	],
	"samplers":[
		{
			"magFilter":9729,
			"minFilter":9987
		}
	],
	"buffers":[
		{
			"byteLength":193104,
			"uri":"Mussarela_2kg.bin"
		}
	]
}
