<svg xmlns="http://www.w3.org/2000/svg" viewBox="0 0 808 236.46"><defs><style>.cls-1{fill:#003fa5;}</style></defs><g id="Camada_2" data-name="Camada 2"><g id="Camada_1-2" data-name="Camada 1"><path class="cls-1" d="M468.07,83.13c-9.68.37-17.37,6.84-17,17.4.4,10.27,7.81,12,8,17.62.57,15-14.22,35.51-26.84,36-3.81.15-6.53-1.81-6.71-6.5-.69-17.9,8.95-42.66,8.45-55.57-.19-5-3.81-7.49-10.27-7.24-17,.65-32.4,5.64-32.15,12.1.15,3.81,1.93,4.33,2.12,9.32.33,8.64-5.57,24-7.32,39.93l-.56.55c-4.4,4.16-9.84,10.16-15.7,10.61-7,.52-11.66-2.37-12.32-11.15-.72-9.67,2-24.89,3.67-33.55,1.53-7.18,4.57-9.77,11.89-10.32,3.52-.26,6.43-4.6,6-10.46-.18-2.34-2-3.09-4.34-2.91-8.78.66-10.11-1.31-10.4-5.11-.37-5,2.83-17.29,2.35-23.73a4.46,4.46,0,0,0-5-4.34c-2.63.2-4.84,2.13-7.42,7-6.69,12.86-19.9,29.17-35.42,30.33-3.22.24-4.56,5.94-4.34,8.86.4,5.27,8.13,2.34,8.41,6.15,1.06,14.17-6.36,29-5.56,46.93-3.19,4-5.29,6.48-10.1,7-5.25.6-10.42-3.25-11.28-10.83-2.59-22.76,5-46.67,4.23-53.68-.36-3.2-2.24-4.17-4.87-3.87-6.71.76-18.62,7.73-23.58,8.29-4.67.53-9.68-4.51-25.14-2.75C205.16,104,191,135.47,194.3,164.35c2.55,22.47,17.88,32.55,35.1,30.59,21.29-2.43,35-19.65,35-19.65s6.71,14.9,24.22,12.91c15.7-1.79,26.18-11.39,32.17-19.5,4.52,9.22,13.95,15.14,29.18,14,13.88-1,27.7-11.88,36.51-21.64,2.08,10.09,10.22,17.95,24.41,17.41,39.61-1.52,77-44.68,75.88-75.19C486.27,90.37,479.22,82.7,468.07,83.13ZM257.44,158.35c-2.79,9.19-8.06,14.81-13.61,15.44-6.41.73-10.61-5-11.48-12.58-1.82-16.05,2-47.51,18.62-49.4,6.12-.7,9.11,2.21,9.71,7.46C262,130.65,260.08,150.37,257.44,158.35Z"/><path class="cls-1" d="M524.35,67c11.16,0,21.73-12.64,21.72-24.38,0-8.81-5.88-15.56-16.45-15.55-11.16,0-21.72,12.34-21.72,24.09A16.1,16.1,0,0,0,524.35,67Z"/><path class="cls-1" d="M776.39,153.41c-1.75-.18-3.95,1.07-6.5,2.87-7,4.59-18.2,13.16-33.09,11.61-14-1.46-21.08-10.17-20-20.39,29.45.71,50.69-13.32,52.42-30,1.31-12.56-6.83-22.27-26.69-24.33-38.84-4-64.27,19-67.22,47.32a52.08,52.08,0,0,0-.13,9.87l-.47.4c-4,3.58-6.52,5.78-11.5,5.48-5.28-.32-9.12-5-8.66-12.58,1.7-28.14,28.74-86.22,30.23-110.84.88-14.65-8.29-23.45-23.53-24.37-16.71-1-32.83,7.73-33.2,13.88-.14,2.35,1.25,3.61,3.89,3.77,6.45.39,11.15,5.38,10.56,15-2.67,44.32-26.36,79.8-29,106.28-3.8,3.58-6.22,5.78-11.12,5.63-5.28-.15-9.26-4.67-9-12.3.82-28.18,26-87.08,26.74-111.73.42-14.67-9-23.17-24.28-23.62C579,5,563.2,14.2,563,20.37c-.07,2.34,1.37,3.56,4,3.64,6.46.18,11.31,5,11,14.71-1.29,44.37-23.84,80.57-25.68,107.11-3.69,3.69-6,6-10.94,6-5.29,0-9.7-4.4-9.7-12,0-19.37,9.37-37.88,9.37-49.62,0-5-3.53-7.63-10-7.63-17,0-32.59,4.42-32.59,10.88,0,3.82,1.77,4.41,1.77,9.4,0,10.57-9.67,29.66-9.66,48.45,0,13.51,9.7,24.37,29.08,24.35,15.95,0,27.51-8.52,34.35-16,3.44,9.47,11.93,16.2,26.17,16.62,15.91.46,27.5-7.69,34.5-14.91,3.15,9.55,11.42,16.52,25.62,17.38,18.08,1.09,30.9-9.13,37.66-16.64,6,14,20.59,21.6,39.8,23.6,28.33,2.95,44.13-9.87,54.83-19.09,4.87-4.21,6.57-6.4,6.88-9.32A3.4,3.4,0,0,0,776.39,153.41Zm-34.61-47.58c4.68.48,6.77,3.06,6.31,7.44-.73,7-13.05,20.49-30,22C719.85,118,733,104.91,741.78,105.83Z"/><path class="cls-1" d="M209.43,16.77c2.6-.46,4.08-2.21,3.57-5.1-1-5.78-10.25-14-26.72-11.06-11.57,2.06-16.56,9.21-19.72,19.91-6.94,23-8.5,52.81-9.56,97.14-3.67-17.25-9.43-41.27-15.08-54.58-10.23-24.43-22.84-42-50.41-43.54C73.73,18.39,66.67,25.45,65.69,31c-.52,2.89,1,4.64,3.56,5.11,6.94,1.23,11.12,2.87,15.67,10.84a33.55,33.55,0,0,1,3.79,10.44C97.81,108.5,76.83,185,50.81,189.63c-11.85,2.11-18.1-4.53-19.39-11.76-1.18-6.65.43-9.32-.19-12.79-.36-2-1.77-3.26-4.66-2.75-11,2-29.84,21.71-26.08,42.81,3.6,20.24,22.34,35.1,48.36,30.47,57.53-10.24,60.32-95.13,62.4-138.74l1.44-.26c9.61,30.5,13.64,68.25,22.43,104.27,1.16,4.86,3.44,5.94,6.62,5.38l28.62-5.09c4-.72,6.82-3.6,6-9.72-5.07-70.38,7.19-145.62,17.37-163.84C198.31,19.65,202.49,18,209.43,16.77Z"/><path class="cls-1" d="M808,48.08A17.87,17.87,0,1,1,790.19,30.7,17.47,17.47,0,0,1,808,48.08Zm-31.27,0c0,7.74,5.73,13.89,13.57,13.89,7.63,0,13.25-6.15,13.25-13.78s-5.62-14-13.36-14S776.73,40.45,776.73,48.08Zm10.71,9.12h-4V39.82a34.93,34.93,0,0,1,6.68-.54c3.28,0,4.77.54,6,1.28a4.82,4.82,0,0,1,1.69,3.81c0,1.91-1.48,3.39-3.6,4v.22c1.7.63,2.65,1.9,3.18,4.23.53,2.65.85,3.71,1.27,4.35h-4.34c-.54-.64-.85-2.22-1.38-4.24-.32-1.91-1.38-2.75-3.61-2.75h-1.9Zm.1-9.86h1.91c2.23,0,4-.74,4-2.54,0-1.59-1.17-2.65-3.71-2.65a9.53,9.53,0,0,0-2.23.21Z"/></g></g></svg>